<svg xmlns="http://www.w3.org/2000/svg" width="1200" height="630" viewBox="0 0 1200 630" role="img" aria-labelledby="t d">
  <title id="t">Redowan's Reflections cover image</title>
  <desc id="d">A Geist-style social preview for rednafi.com.</desc>
  <defs>
    <pattern id="grid" width="48" height="48" patternUnits="userSpaceOnUse">
      <path d="M48 0H0V48" fill="none" stroke="#ececec" stroke-width="1"/>
    </pattern>
    <clipPath id="grid-clip"><rect x="144" y="144" width="912" height="336"/></clipPath>
  </defs>

  <rect width="1200" height="630" fill="#fafafa"/>

  <g clip-path="url(#grid-clip)"><rect x="144" y="144" width="912" height="336" fill="url(#grid)" opacity="0.7"/></g>
  <rect x="96" y="96" width="1008" height="432" fill="none" stroke="#dedede" stroke-width="1.5"/>
  <rect x="144" y="144" width="912" height="336" fill="none" stroke="#ededed" stroke-width="1"/>
  <path d="M83 96h26M96 83v26" fill="none" stroke="#171717" stroke-width="2.5"/><path d="M1091 528h26M1104 515v26" fill="none" stroke="#171717" stroke-width="2.5"/>

  <g transform="translate(677.19 127.86) scale(0.7207)"><g transform="translate(0.000000,512.000000) scale(0.025000,-0.025000)"
fill="#000000" stroke="none">
<path d="M10740 16890 c-80 -4 -239 -8 -355 -9 -173 -1 -223 -5 -285 -21 -53
-14 -108 -20 -186 -20 -83 0 -127 -5 -174 -20 -40 -13 -90 -20 -139 -20 -108
0 -121 -5 -121 -46 0 -24 5 -34 15 -34 9 0 19 -10 24 -23 5 -13 16 -29 25 -36
9 -7 16 -22 16 -33 0 -11 9 -22 20 -25 11 -3 20 -13 20 -23 0 -10 9 -20 20
-23 12 -3 20 -14 20 -26 0 -12 9 -29 20 -38 11 -10 20 -25 20 -35 0 -10 7 -18
15 -18 8 0 22 -15 30 -32 32 -67 46 -88 61 -88 7 0 14 -9 14 -19 0 -11 5 -23
11 -27 6 -3 17 -22 25 -40 8 -19 21 -34 29 -34 8 0 15 -8 15 -19 0 -10 9 -30
20 -44 11 -14 20 -32 20 -40 0 -8 9 -17 20 -20 12 -3 20 -14 20 -26 0 -12 9
-29 20 -38 11 -10 20 -25 20 -35 0 -10 7 -18 15 -18 8 0 19 -16 25 -40 6 -24
17 -40 25 -40 8 0 15 -7 15 -16 0 -9 9 -27 20 -41 11 -14 20 -34 20 -43 0 -10
9 -20 20 -23 13 -3 20 -14 20 -31 0 -15 8 -31 20 -38 11 -7 20 -19 20 -26 0
-8 9 -25 20 -39 11 -14 20 -34 20 -44 0 -11 6 -19 14 -19 15 0 26 -21 26 -52
0 -11 8 -22 20 -25 13 -3 20 -14 20 -29 0 -13 9 -33 20 -44 11 -11 20 -26 20
-32 0 -7 9 -24 20 -38 11 -14 20 -31 20 -37 0 -7 9 -22 20 -33 11 -11 20 -31
20 -45 0 -15 6 -25 14 -25 15 0 26 -21 26 -50 0 -11 9 -24 20 -30 13 -7 20
-21 20 -40 0 -19 7 -33 20 -40 13 -7 20 -21 20 -41 0 -22 5 -32 20 -36 15 -4
20 -14 20 -39 0 -23 6 -37 20 -44 13 -7 20 -21 20 -40 0 -19 7 -33 20 -40 13
-7 20 -21 20 -40 0 -19 7 -33 20 -40 14 -8 20 -21 20 -45 0 -23 5 -35 14 -35
15 0 26 -21 26 -51 0 -10 9 -28 20 -39 11 -11 20 -30 20 -42 0 -13 9 -34 20
-48 11 -14 20 -35 20 -47 0 -13 9 -32 20 -43 11 -11 20 -33 20 -50 0 -19 7
-33 20 -40 13 -7 20 -21 20 -41 0 -17 9 -42 20 -56 11 -14 20 -36 20 -49 0
-13 9 -33 20 -44 11 -11 20 -33 20 -50 0 -17 9 -39 20 -50 11 -11 20 -33 20
-50 0 -17 9 -39 20 -50 11 -11 20 -33 20 -51 0 -17 9 -42 20 -56 11 -14 20
-40 20 -57 0 -19 8 -38 20 -49 13 -11 20 -29 20 -52 0 -21 8 -43 19 -54 10
-10 20 -39 24 -66 3 -28 12 -54 21 -60 9 -7 16 -27 16 -47 0 -20 9 -46 20 -61
11 -14 20 -40 20 -60 0 -19 9 -45 20 -60 12 -15 20 -40 20 -65 0 -24 8 -49 20
-65 12 -16 20 -40 20 -65 0 -24 7 -47 16 -57 9 -9 19 -42 23 -75 4 -33 15 -68
24 -78 11 -12 17 -35 17 -65 0 -29 6 -52 16 -62 10 -10 19 -44 24 -87 4 -39
14 -74 20 -78 7 -4 15 -32 18 -61 3 -35 12 -62 25 -76 20 -22 28 -23 171 -23
121 0 165 -4 221 -20 40 -11 100 -20 140 -20 51 0 78 -5 101 -19 18 -11 56
-20 97 -23 43 -2 72 -10 85 -21 11 -11 35 -17 62 -17 26 0 51 -7 61 -16 10 -9
40 -19 66 -22 26 -3 53 -11 58 -18 6 -8 31 -18 57 -23 26 -4 54 -16 63 -25 9
-9 28 -16 43 -16 15 0 38 -9 52 -20 14 -11 35 -20 48 -20 12 0 31 -9 42 -20
11 -11 29 -20 39 -20 30 0 51 -11 51 -26 0 -8 10 -14 25 -14 14 0 34 -9 45
-20 28 -28 47 -25 53 9 3 16 13 36 22 44 9 10 15 33 15 62 0 32 6 55 20 72 13
16 20 41 20 67 0 22 8 55 17 71 9 17 19 58 23 93 4 34 14 70 22 80 9 10 18 46
21 86 3 38 10 72 17 76 7 4 16 39 19 78 4 38 13 77 20 86 8 10 17 54 21 102 4
54 12 89 20 94 9 5 15 38 18 92 3 51 11 97 22 118 11 23 19 67 22 127 2 57 9
97 18 108 9 10 16 59 20 140 4 82 11 130 20 140 10 12 16 61 20 158 4 91 11
151 20 167 9 17 16 84 21 215 4 105 13 215 20 245 11 44 14 204 14 795 0 664
-2 749 -17 829 -11 51 -18 134 -18 196 l0 107 -39 7 c-21 3 -41 12 -44 20 -3
7 -26 16 -53 19 -26 3 -53 11 -58 19 -6 8 -33 17 -60 20 -29 4 -55 13 -61 22
-8 10 -27 16 -52 16 -25 0 -50 8 -66 20 -16 13 -40 20 -68 20 -25 0 -50 7 -60
16 -10 9 -48 20 -85 24 -37 5 -70 14 -75 21 -4 8 -38 16 -78 20 -44 4 -75 12
-86 22 -12 12 -34 17 -78 17 -44 0 -71 6 -95 20 -24 15 -50 20 -98 20 -45 0
-77 6 -104 20 -30 15 -59 20 -119 20 -57 0 -95 6 -131 20 -38 15 -74 20 -143
20 -58 0 -121 7 -168 19 -60 15 -127 20 -349 25 -151 3 -327 8 -390 10 -63 2
-180 0 -260 -4z"/>
<path d="M8861 16662 c-15 -10 -54 -19 -99 -23 -45 -4 -77 -11 -82 -19 -5 -8
-37 -17 -75 -21 -38 -4 -73 -13 -84 -23 -10 -9 -35 -16 -61 -16 -27 0 -51 -6
-62 -17 -10 -9 -45 -20 -79 -24 -33 -4 -68 -14 -77 -22 -9 -8 -39 -17 -65 -20
-26 -2 -53 -11 -60 -20 -7 -8 -34 -17 -61 -20 -30 -3 -52 -11 -58 -21 -6 -11
-23 -16 -54 -16 -32 0 -49 -6 -61 -20 -11 -12 -30 -20 -49 -20 -17 0 -43 -9
-57 -20 -14 -11 -39 -20 -57 -20 -18 0 -43 -9 -57 -20 -14 -11 -39 -20 -54
-20 -17 0 -37 -9 -46 -20 -10 -11 -30 -20 -46 -20 -16 0 -40 -9 -54 -20 -14
-11 -41 -20 -59 -20 -23 0 -37 -6 -44 -20 -7 -13 -21 -20 -40 -20 -17 0 -39
-9 -50 -20 -11 -11 -31 -20 -44 -20 -13 0 -35 -9 -49 -20 -14 -11 -35 -20 -46
-20 -12 0 -30 -9 -41 -20 -11 -11 -33 -20 -50 -20 -19 0 -33 -7 -40 -20 -7
-13 -21 -20 -38 -20 -15 0 -35 -9 -45 -20 -10 -12 -29 -20 -47 -20 -19 0 -30
-5 -30 -14 0 -15 -21 -26 -50 -26 -11 0 -24 -9 -30 -20 -7 -14 -21 -20 -44
-20 -25 0 -35 -5 -39 -20 -4 -15 -14 -20 -36 -20 -20 0 -34 -7 -41 -20 -6 -11
-19 -20 -30 -20 -29 0 -50 -11 -50 -26 0 -8 -10 -14 -25 -14 -14 0 -34 -9 -45
-20 -11 -11 -26 -20 -34 -20 -7 0 -25 -9 -39 -20 -14 -11 -31 -20 -39 -20 -7
0 -19 -9 -26 -20 -7 -12 -23 -20 -38 -20 -17 0 -28 -7 -31 -20 -3 -13 -14 -20
-29 -20 -13 0 -33 -9 -44 -20 -11 -11 -24 -20 -30 -20 -6 0 -19 -9 -30 -20
-11 -11 -29 -20 -41 -20 -12 0 -23 -8 -26 -20 -3 -11 -12 -20 -20 -20 -8 0
-26 -9 -40 -20 -14 -11 -34 -20 -44 -20 -11 0 -19 -7 -19 -15 0 -8 -15 -21
-34 -29 -18 -8 -37 -19 -40 -25 -4 -6 -15 -11 -25 -11 -10 0 -21 -9 -24 -20
-3 -12 -14 -20 -26 -20 -12 0 -29 -9 -38 -20 -10 -11 -25 -20 -35 -20 -10 0
-18 -7 -18 -14 0 -15 -21 -29 -87 -61 -18 -8 -33 -22 -33 -30 0 -8 -8 -15 -18
-15 -10 0 -25 -9 -35 -20 -9 -11 -24 -20 -32 -20 -8 0 -20 -9 -27 -20 -7 -11
-21 -20 -30 -20 -10 0 -18 -7 -18 -15 0 -9 -11 -20 -25 -25 -14 -5 -25 -14
-25 -19 0 -5 -14 -14 -30 -20 -17 -5 -33 -17 -36 -26 -3 -8 -15 -15 -25 -15
-10 0 -19 -7 -19 -15 0 -9 -8 -19 -17 -22 -10 -4 -24 -15 -31 -25 -7 -10 -19
-18 -26 -18 -8 0 -20 -7 -27 -16 -7 -9 -23 -20 -36 -25 -13 -5 -23 -15 -23
-23 0 -7 -9 -16 -21 -19 -30 -8 -18 -30 21 -38 18 -4 37 -14 42 -23 5 -9 22
-16 39 -16 17 0 42 -9 56 -20 14 -11 39 -20 54 -20 17 0 37 -9 46 -20 10 -11
30 -20 45 -20 16 0 37 -9 48 -20 11 -11 33 -20 50 -20 17 0 39 -9 50 -20 11
-11 33 -20 50 -20 19 0 33 -7 40 -20 7 -13 21 -20 40 -20 17 0 39 -9 50 -20
11 -11 30 -20 43 -20 12 0 33 -9 47 -20 14 -11 35 -20 48 -20 12 0 30 -9 39
-20 10 -11 28 -20 40 -20 13 0 32 -9 43 -20 11 -11 29 -20 39 -20 30 0 51 -11
51 -26 0 -9 12 -14 35 -14 24 0 37 -6 45 -20 7 -13 21 -20 40 -20 19 0 33 -7
40 -20 7 -13 21 -20 40 -20 19 0 33 -7 40 -20 7 -13 21 -20 41 -20 22 0 32 -5
36 -20 3 -13 14 -20 28 -20 34 0 55 -10 55 -26 0 -8 10 -14 25 -14 14 0 34 -9
45 -20 11 -11 26 -20 34 -20 7 0 25 -9 39 -20 14 -11 30 -20 37 -20 7 0 23 -9
37 -20 14 -11 33 -20 42 -20 9 0 22 -9 29 -20 7 -11 23 -20 37 -20 14 0 29 -8
35 -20 6 -12 21 -20 35 -20 14 0 30 -9 37 -20 7 -11 20 -20 29 -20 9 0 28 -9
42 -20 14 -11 32 -20 40 -20 8 0 17 -9 20 -20 3 -12 14 -20 25 -20 31 0 52
-11 52 -26 0 -8 8 -14 19 -14 10 0 30 -9 44 -20 14 -11 32 -20 40 -20 8 0 17
-9 20 -20 3 -13 14 -20 31 -20 15 0 31 -8 38 -20 7 -11 20 -20 28 -20 9 0 23
-9 33 -20 9 -11 26 -20 38 -20 12 0 23 -8 26 -20 3 -11 13 -20 23 -20 9 0 25
-9 35 -20 10 -11 27 -20 37 -20 11 0 22 -9 25 -20 3 -11 14 -20 24 -20 10 0
21 -5 25 -11 3 -6 22 -17 40 -25 19 -8 34 -21 34 -29 0 -8 9 -15 19 -15 11 0
23 -5 27 -11 3 -6 22 -17 40 -25 19 -8 34 -21 34 -29 0 -8 8 -15 18 -15 9 0
23 -9 30 -20 7 -11 21 -20 32 -20 11 0 25 -9 32 -20 7 -11 21 -20 30 -20 10 0
18 -7 18 -15 0 -8 15 -22 33 -30 66 -32 87 -46 87 -61 0 -7 9 -14 20 -14 11 0
20 -7 20 -15 0 -8 15 -22 33 -30 66 -32 87 -46 87 -61 0 -7 9 -14 20 -14 11 0
20 -7 20 -15 0 -9 11 -20 25 -25 14 -5 25 -14 25 -20 0 -5 11 -12 25 -16 14
-3 31 -14 38 -23 6 -10 20 -20 30 -24 9 -3 17 -13 17 -22 0 -8 9 -15 20 -15
11 0 20 -7 20 -15 0 -9 8 -19 18 -22 16 -6 58 -36 92 -66 8 -8 23 -17 33 -20
9 -4 17 -13 17 -22 0 -8 9 -15 20 -15 13 0 20 -7 20 -20 0 -13 7 -20 20 -20
11 0 20 -7 20 -15 0 -9 11 -20 25 -25 14 -5 25 -14 25 -19 0 -5 8 -12 18 -15
9 -3 36 -23 60 -45 23 -21 49 -42 57 -45 8 -3 15 -12 15 -20 0 -7 9 -16 20
-19 11 -3 20 -12 20 -21 0 -9 8 -16 20 -16 13 0 20 -7 20 -20 0 -13 7 -20 20
-20 12 0 20 -7 20 -16 0 -9 9 -18 20 -21 11 -3 20 -12 20 -19 0 -8 6 -17 14
-20 15 -6 158 -138 333 -308 l112 -108 46 6 c26 4 55 16 66 27 10 10 30 19 43
19 15 0 26 7 29 20 4 15 14 20 39 20 21 0 40 7 51 20 9 11 26 20 38 20 11 0
32 9 46 20 14 11 39 20 54 20 17 0 37 9 46 20 10 11 30 20 45 20 16 0 37 9 48
20 13 13 33 20 60 20 25 0 42 6 48 15 4 9 31 19 59 24 28 4 59 15 68 24 11 11
33 17 64 17 33 0 56 6 74 20 18 14 40 20 79 20 35 0 64 7 86 20 21 13 50 20
85 20 30 0 70 9 96 20 32 15 65 20 125 20 56 0 104 7 154 22 72 23 73 23 67
52 -3 16 -12 37 -20 46 -9 10 -15 36 -15 67 0 35 -6 58 -20 76 -14 17 -20 40
-20 72 0 32 -6 55 -20 72 -13 17 -20 41 -20 68 0 27 -7 51 -20 68 -12 15 -20
40 -20 65 0 23 -8 49 -19 63 -10 13 -20 45 -23 71 -3 26 -13 54 -22 63 -9 10
-16 33 -16 55 0 23 -7 45 -17 55 -9 9 -20 39 -24 67 -5 28 -15 55 -22 62 -8 6
-17 31 -20 56 -3 24 -13 49 -21 56 -9 6 -16 26 -16 44 0 17 -9 43 -20 57 -11
14 -20 41 -20 59 0 20 -6 37 -16 42 -9 5 -20 31 -25 58 -5 26 -16 52 -24 57
-9 4 -15 22 -15 40 0 20 -8 39 -20 50 -11 9 -20 29 -20 46 0 15 -9 40 -20 54
-11 14 -20 39 -20 56 0 20 -7 34 -20 41 -13 7 -20 21 -20 40 0 17 -9 39 -20
50 -11 11 -20 30 -20 43 0 12 -9 33 -20 47 -11 14 -20 35 -20 48 0 12 -9 31
-20 42 -11 11 -20 29 -20 39 0 30 -11 51 -26 51 -9 0 -14 12 -14 35 0 24 -6
37 -20 45 -14 8 -20 21 -20 45 0 23 -5 35 -14 35 -16 0 -26 21 -26 56 0 14 -6
24 -14 24 -16 0 -26 21 -26 55 0 14 -7 25 -20 28 -15 4 -20 14 -20 40 0 26 -5
36 -20 40 -15 4 -20 14 -20 36 0 20 -7 34 -20 41 -13 7 -20 21 -20 41 0 22 -5
32 -20 36 -13 3 -20 14 -20 29 0 13 -9 33 -20 44 -11 11 -20 29 -20 40 0 11
-9 28 -20 37 -11 10 -20 24 -20 33 0 9 -9 23 -20 33 -11 9 -20 28 -20 42 0 15
-6 25 -14 25 -15 0 -26 21 -26 52 0 11 -8 22 -20 25 -13 3 -20 14 -20 29 0 13
-9 32 -20 41 -11 10 -20 23 -20 30 0 7 -9 22 -20 33 -11 11 -20 29 -20 40 0
10 -9 24 -20 30 -11 6 -20 20 -20 30 0 11 -9 28 -20 37 -11 10 -20 24 -20 33
0 8 -9 21 -20 28 -12 7 -20 23 -20 38 0 17 -7 28 -20 31 -11 3 -20 13 -20 23
0 9 -9 25 -20 35 -11 10 -20 26 -20 36 0 10 -9 23 -20 29 -11 6 -20 17 -20 24
0 7 -9 25 -20 39 -11 14 -20 32 -20 41 0 9 -7 16 -15 16 -8 0 -22 15 -30 33
-24 51 -42 79 -55 87 -13 8 -31 36 -55 88 -8 17 -22 32 -30 32 -8 0 -15 9 -15
20 0 11 -5 20 -11 20 -5 0 -17 16 -25 35 -8 20 -21 38 -29 42 -8 3 -15 14 -15
24 0 10 -7 19 -15 19 -8 0 -22 15 -30 33 -32 66 -46 87 -61 87 -7 0 -14 8 -14
19 0 10 -9 21 -20 24 -11 3 -20 14 -20 25 0 11 -7 26 -16 33 -9 7 -20 23 -25
36 -8 21 -14 23 -81 22 -52 0 -80 -5 -97 -17z"/>
<path d="M13997 16233 c-2 -5 0 -216 5 -470 10 -566 -2 -1366 -21 -1402 -9
-16 -16 -91 -22 -215 -5 -129 -13 -204 -23 -231 -10 -25 -15 -77 -16 -140 -1
-63 -6 -115 -16 -140 -9 -22 -19 -90 -23 -152 -5 -68 -13 -119 -21 -129 -9 -9
-16 -57 -21 -121 -4 -66 -11 -108 -19 -113 -7 -4 -15 -45 -19 -98 -4 -50 -14
-98 -21 -107 -7 -8 -16 -54 -21 -102 -4 -49 -13 -89 -20 -94 -7 -4 -15 -39
-18 -81 -4 -45 -13 -83 -24 -98 -11 -16 -17 -44 -17 -80 0 -39 -6 -62 -20 -80
-14 -18 -20 -41 -20 -78 0 -38 -6 -61 -20 -79 -14 -18 -20 -41 -20 -74 0 -30
-6 -53 -16 -64 -9 -9 -19 -42 -23 -75 -4 -33 -15 -68 -24 -78 -11 -12 -17 -35
-17 -65 0 -28 -6 -52 -16 -61 -8 -9 -18 -31 -21 -49 -4 -29 -2 -35 16 -40 12
-3 21 -12 21 -21 0 -9 8 -16 20 -16 13 0 20 -7 20 -20 0 -13 7 -20 20 -20 11
0 20 -4 20 -10 0 -5 17 -20 38 -34 20 -13 49 -35 63 -48 15 -14 34 -28 43 -31
9 -4 16 -13 16 -21 0 -7 9 -16 20 -19 11 -3 20 -12 20 -20 0 -8 9 -17 20 -20
11 -3 20 -12 20 -21 0 -9 8 -16 20 -16 13 0 20 -7 20 -20 0 -13 7 -20 20 -20
13 0 20 -7 20 -19 0 -10 9 -21 20 -24 11 -3 20 -12 20 -21 0 -9 7 -16 15 -16
9 0 19 -8 22 -17 4 -10 12 -21 18 -25 7 -4 27 -32 46 -62 19 -31 40 -56 47
-56 6 0 12 -9 12 -20 0 -13 7 -20 20 -20 13 0 20 -7 20 -20 0 -11 5 -20 11
-20 5 0 17 -16 25 -35 8 -20 21 -38 29 -42 8 -3 15 -13 15 -23 0 -10 9 -20 20
-23 12 -3 20 -14 20 -26 0 -12 9 -29 20 -38 11 -10 20 -25 20 -35 0 -10 7 -18
15 -18 8 0 19 -16 25 -40 6 -24 17 -40 25 -40 9 0 15 -10 15 -25 0 -13 9 -32
19 -42 10 -10 20 -27 22 -38 2 -10 16 -26 30 -34 26 -14 28 -13 82 41 31 31
63 58 72 61 8 4 15 13 15 22 0 8 7 15 16 15 9 0 18 9 21 20 3 11 12 20 20 20
8 0 17 9 20 20 3 11 14 20 24 20 12 0 19 7 19 20 0 13 7 20 20 20 13 0 20 7
20 20 0 13 7 20 19 20 10 0 21 9 24 20 3 11 12 20 20 20 8 0 17 9 20 20 3 11
12 20 21 20 9 0 16 8 16 20 0 13 7 20 20 20 13 0 20 7 20 20 0 13 7 20 20 20
13 0 20 7 20 20 0 13 7 20 20 20 13 0 20 7 20 20 0 13 7 20 20 20 13 0 20 7
20 20 0 13 7 20 20 20 13 0 20 7 20 20 0 13 7 20 20 20 13 0 20 7 20 19 0 10
9 21 20 24 11 3 20 12 20 20 0 8 9 17 20 20 11 3 20 12 20 20 0 8 9 17 20 20
11 3 20 12 20 21 0 9 4 16 9 16 5 0 27 24 48 53 21 28 52 66 69 83 17 18 34
39 37 48 4 9 13 16 22 16 8 0 15 9 15 20 0 13 7 20 20 20 13 0 20 7 20 19 0
10 9 21 20 24 11 3 20 12 20 20 0 8 6 17 13 20 8 3 31 30 51 61 20 31 41 56
47 56 5 0 9 7 9 16 0 9 9 18 20 21 11 3 20 14 20 24 0 11 7 19 15 19 9 0 20
11 25 25 5 14 14 25 19 25 5 0 14 14 21 30 7 17 16 30 21 30 5 0 14 11 19 25
5 14 16 25 25 25 8 0 15 9 15 20 0 11 7 20 14 20 14 0 20 9 62 88 10 17 24 32
31 32 7 0 13 9 13 20 0 11 7 20 14 20 15 0 29 21 61 88 8 17 22 32 30 32 8 0
15 9 15 20 0 11 7 20 15 20 8 0 22 15 30 33 32 66 46 87 61 87 7 0 14 8 14 18
0 11 9 27 20 37 11 10 20 27 20 37 0 11 9 22 20 25 11 3 20 13 20 22 0 9 9 24
20 34 11 9 20 26 20 38 0 12 8 23 20 26 11 3 20 13 20 23 0 10 6 20 14 23 8 3
19 22 26 41 6 20 18 36 26 36 8 0 14 8 14 18 0 10 9 25 20 35 11 9 20 26 20
38 0 12 8 23 20 26 12 3 20 14 20 28 0 12 9 30 20 40 11 10 20 26 20 37 0 10
7 18 15 18 8 0 19 16 25 40 6 24 17 40 25 40 8 0 15 7 15 16 0 9 9 27 20 41
11 14 20 34 20 43 0 10 9 20 20 23 12 3 20 14 20 25 0 31 11 52 26 52 8 0 14
10 14 25 0 14 9 33 20 42 11 10 20 24 20 31 0 8 9 25 20 39 11 14 20 33 20 42
0 9 9 22 20 29 11 7 20 23 20 37 0 14 8 29 20 35 11 6 20 19 20 30 0 29 11 50
26 50 20 0 17 33 -4 61 -10 13 -21 32 -25 42 -3 9 -13 17 -22 17 -8 0 -15 9
-15 19 0 10 -7 22 -15 25 -9 3 -21 19 -26 36 -6 16 -15 30 -20 30 -5 0 -14 11
-19 25 -5 14 -16 25 -25 25 -8 0 -15 9 -15 20 0 11 -7 20 -15 20 -9 0 -19 10
-24 23 -5 13 -16 29 -25 36 -9 7 -16 19 -16 27 0 7 -8 19 -18 26 -10 7 -21 21
-25 31 -3 9 -13 17 -22 17 -8 0 -15 8 -15 19 0 10 -9 21 -20 24 -11 3 -20 12
-20 21 0 9 -7 16 -15 16 -8 0 -15 5 -15 10 0 6 -8 18 -17 28 -10 10 -36 41
-58 70 -21 28 -42 52 -46 52 -4 0 -11 9 -14 20 -3 11 -12 20 -20 20 -7 0 -15
9 -18 20 -3 11 -12 20 -20 20 -8 0 -17 9 -20 20 -3 11 -12 20 -20 20 -8 0 -17
9 -20 20 -3 11 -12 20 -21 20 -9 0 -16 8 -16 20 0 13 -7 20 -20 20 -13 0 -20
7 -20 20 0 13 -7 20 -20 20 -13 0 -20 7 -20 20 0 13 -7 20 -20 20 -13 0 -20 7
-20 20 0 13 -7 20 -19 20 -10 0 -21 9 -24 20 -3 11 -12 20 -20 20 -8 0 -17 9
-20 20 -3 11 -12 20 -21 20 -9 0 -16 7 -16 15 0 9 -6 18 -14 21 -8 3 -43 32
-78 65 -34 32 -66 59 -69 59 -3 0 -18 11 -33 25 -15 14 -31 25 -37 25 -5 0 -9
6 -9 14 0 7 -9 16 -20 19 -11 3 -20 12 -20 21 0 9 -8 16 -20 16 -12 0 -20 7
-20 16 0 9 -9 18 -20 21 -11 3 -20 9 -20 13 0 9 -75 62 -102 73 -10 3 -18 13
-18 22 0 8 -9 15 -20 15 -11 0 -20 7 -20 15 0 9 -11 20 -25 25 -14 5 -25 14
-25 19 0 5 -14 14 -30 20 -17 5 -33 17 -36 26 -3 8 -15 15 -25 15 -10 0 -19 7
-19 15 0 9 -8 19 -17 22 -9 4 -25 15 -35 25 -10 10 -27 18 -39 18 -12 0 -23 8
-26 20 -3 11 -13 20 -23 20 -10 0 -20 7 -23 15 -4 8 -22 21 -42 29 -19 8 -35
20 -35 25 0 6 -8 11 -19 11 -10 0 -21 9 -24 20 -3 12 -14 20 -26 20 -12 0 -30
9 -41 20 -11 11 -26 20 -33 20 -7 0 -17 8 -24 19 -6 10 -25 21 -42 24 -18 4
-31 13 -31 22 0 8 -8 15 -18 15 -11 0 -27 9 -37 20 -10 11 -28 20 -40 20 -14
0 -25 8 -28 20 -3 13 -14 20 -31 20 -15 0 -31 8 -38 20 -7 11 -20 20 -29 20
-9 0 -28 9 -42 20 -14 11 -32 20 -40 20 -7 0 -22 9 -32 20 -10 11 -29 20 -42
20 -13 0 -23 6 -23 14 0 16 -21 26 -55 26 -14 0 -25 7 -28 20 -4 15 -14 20
-36 20 -20 0 -34 7 -41 20 -7 13 -21 20 -40 20 -19 0 -33 7 -40 20 -7 13 -21
20 -40 20 -19 0 -33 7 -40 20 -7 13 -21 20 -40 20 -17 0 -39 9 -50 20 -20 20
-65 27 -73 13z"/>
<path d="M4670 14447 c-13 -7 -38 -25 -55 -42 -17 -16 -58 -54 -92 -83 -80
-69 -257 -245 -325 -325 -29 -34 -76 -85 -104 -114 -29 -29 -54 -59 -57 -68
-4 -8 -13 -15 -22 -15 -8 0 -15 -9 -15 -20 0 -13 -7 -20 -20 -20 -13 0 -20 -7
-20 -20 0 -11 -7 -20 -15 -20 -9 0 -18 -7 -22 -15 -3 -9 -22 -34 -42 -55 -42
-46 -73 -87 -83 -112 -4 -10 -14 -18 -23 -18 -8 0 -15 -9 -15 -20 0 -13 -7
-20 -20 -20 -13 0 -20 -7 -20 -20 0 -11 -6 -20 -12 -20 -12 0 -32 -27 -66 -88
-8 -13 -20 -26 -28 -29 -8 -3 -14 -13 -14 -23 0 -10 -9 -20 -20 -23 -11 -3
-20 -12 -20 -21 0 -9 -5 -16 -10 -16 -6 0 -18 -16 -27 -35 -9 -19 -20 -35 -25
-35 -5 0 -13 -11 -18 -25 -5 -14 -16 -25 -25 -25 -8 0 -15 -9 -15 -20 0 -11
-5 -20 -11 -20 -5 0 -17 -16 -25 -35 -8 -20 -21 -38 -29 -42 -8 -3 -15 -14
-15 -24 0 -10 -6 -19 -14 -19 -8 0 -22 -13 -30 -30 -9 -16 -23 -43 -32 -60 -8
-16 -22 -30 -30 -30 -8 0 -14 -9 -14 -19 0 -11 -5 -23 -11 -27 -6 -3 -17 -22
-25 -40 -8 -19 -21 -34 -29 -34 -8 0 -15 -7 -15 -16 0 -9 -9 -27 -20 -41 -11
-14 -20 -34 -20 -43 0 -10 -9 -20 -20 -23 -12 -3 -20 -14 -20 -26 0 -12 -9
-29 -20 -38 -11 -10 -20 -25 -20 -35 0 -10 -7 -18 -15 -18 -8 0 -19 -16 -25
-40 -6 -24 -17 -40 -25 -40 -8 0 -15 -7 -15 -16 0 -9 -9 -27 -20 -41 -11 -14
-20 -34 -20 -44 0 -11 -6 -19 -14 -19 -15 0 -26 -21 -26 -52 0 -11 -8 -22 -20
-25 -13 -3 -20 -14 -20 -29 0 -13 -9 -32 -20 -41 -11 -10 -20 -24 -20 -31 0
-8 -9 -25 -20 -39 -11 -14 -20 -33 -20 -42 0 -9 -9 -24 -20 -34 -11 -9 -20
-28 -20 -42 0 -15 -6 -25 -14 -25 -16 0 -26 -21 -26 -55 0 -14 -7 -25 -20 -28
-15 -4 -20 -14 -20 -40 0 -26 -5 -36 -20 -40 -15 -4 -20 -14 -20 -41 0 -24 -5
-36 -14 -36 -16 0 -26 -21 -26 -56 0 -14 -6 -24 -14 -24 -15 0 -26 -21 -26
-51 0 -10 -9 -28 -20 -39 -11 -11 -20 -29 -20 -41 0 -11 -9 -32 -20 -46 -11
-14 -20 -36 -20 -49 0 -14 -9 -32 -20 -41 -12 -11 -20 -30 -20 -50 0 -22 -6
-36 -20 -43 -13 -7 -20 -21 -20 -41 0 -17 -9 -42 -20 -56 -11 -14 -20 -36 -20
-49 0 -13 -9 -33 -20 -44 -11 -11 -20 -33 -20 -51 0 -17 -9 -42 -20 -56 -11
-14 -20 -38 -20 -54 0 -16 -8 -36 -19 -46 -10 -10 -21 -38 -24 -63 -3 -24 -13
-49 -21 -56 -9 -6 -16 -26 -16 -46 0 -20 -9 -46 -20 -61 -14 -18 -20 -40 -20
-76 0 -56 8 -61 56 -36 17 9 56 15 92 15 41 0 75 6 100 19 25 13 66 20 130 23
62 3 96 9 102 17 5 9 45 16 119 21 66 4 117 13 127 20 9 9 62 16 142 21 73 4
144 14 167 23 27 10 76 15 156 16 78 0 132 5 165 16 34 11 113 18 254 24 130
5 218 13 240 21 52 21 1532 20 1605 0 29 -8 136 -17 250 -21 113 -4 215 -13
235 -20 19 -7 99 -15 177 -19 97 -5 146 -11 158 -21 11 -9 57 -16 140 -20 81
-3 128 -10 139 -19 10 -9 58 -16 127 -21 68 -5 114 -12 119 -19 4 -7 48 -16
99 -21 51 -5 99 -14 107 -21 8 -7 54 -15 100 -19 53 -4 89 -12 94 -20 5 -7 37
-14 81 -17 43 -3 89 -13 109 -24 19 -10 61 -20 92 -22 35 -2 65 -10 76 -20 12
-11 36 -17 68 -17 32 0 61 -7 82 -20 27 -17 48 -20 100 -18 63 3 66 4 73 32 5
17 15 34 24 38 8 5 15 17 15 26 0 9 9 23 20 30 12 7 20 23 20 38 0 17 7 28 20
31 11 3 20 14 20 24 0 11 6 19 14 19 8 0 20 15 26 34 6 19 17 37 25 40 8 3 15
15 15 26 0 11 7 20 15 20 9 0 19 8 22 18 4 9 14 23 24 29 9 7 20 24 23 38 4
14 11 25 16 25 6 0 15 11 20 25 5 14 16 25 25 25 8 0 15 9 15 20 0 13 7 20 20
20 13 0 20 7 20 20 0 12 7 20 16 20 9 0 18 9 21 20 3 11 12 20 19 20 8 0 14 5
14 12 0 14 289 302 313 311 9 3 17 13 17 22 0 8 9 15 20 15 13 0 20 7 20 20 0
13 7 20 20 20 11 0 20 7 20 15 0 9 8 19 18 22 17 6 63 40 93 68 9 8 23 15 32
15 10 0 17 8 17 20 0 12 7 20 18 20 10 0 25 8 33 18 9 9 25 22 35 28 15 10 17
14 7 25 -7 7 -13 21 -13 31 0 11 -7 18 -20 18 -13 0 -20 7 -20 20 0 13 -7 20
-20 20 -13 0 -20 7 -20 20 0 13 -7 20 -20 20 -13 0 -20 7 -20 20 0 13 -7 20
-20 20 -13 0 -20 7 -20 20 0 13 -7 20 -20 20 -13 0 -20 7 -20 20 0 13 -7 20
-19 20 -10 0 -21 9 -24 20 -3 11 -12 20 -20 20 -8 0 -17 9 -20 20 -3 11 -12
20 -21 20 -9 0 -16 7 -16 15 0 8 -4 15 -9 15 -5 0 -26 17 -48 38 -21 20 -62
55 -91 77 -28 21 -52 43 -52 47 0 4 -7 8 -16 8 -9 0 -18 9 -21 20 -3 11 -12
20 -20 20 -8 0 -17 9 -20 20 -3 11 -13 20 -23 20 -10 0 -20 9 -23 20 -3 11
-12 20 -21 20 -9 0 -16 7 -16 15 0 9 -11 20 -25 25 -14 5 -25 14 -25 19 0 5
-13 14 -30 21 -16 7 -30 16 -30 21 0 5 -11 14 -25 19 -14 5 -25 16 -25 25 0 8
-9 15 -20 15 -13 0 -20 7 -20 20 0 13 -7 20 -20 20 -11 0 -20 6 -20 13 0 11
-27 31 -88 65 -13 8 -26 20 -29 28 -3 8 -14 14 -24 14 -12 0 -19 7 -19 20 0
13 -7 20 -19 20 -10 0 -22 7 -25 15 -3 9 -19 21 -36 26 -16 6 -30 15 -30 20 0
5 -11 14 -25 19 -14 5 -25 16 -25 25 0 8 -9 15 -19 15 -10 0 -22 7 -25 15 -3
9 -19 21 -36 26 -16 6 -30 15 -30 20 0 5 -11 14 -25 19 -14 5 -25 16 -25 25 0
8 -9 15 -20 15 -11 0 -23 7 -26 15 -3 8 -21 19 -40 25 -19 6 -34 18 -34 26 0
8 -8 14 -19 14 -10 0 -21 9 -24 20 -3 12 -14 20 -26 20 -12 0 -29 9 -38 20
-10 11 -25 20 -35 20 -10 0 -18 7 -18 15 0 8 -15 21 -34 29 -18 8 -37 19 -40
25 -4 6 -15 11 -25 11 -10 0 -21 9 -24 20 -3 11 -14 20 -25 20 -10 0 -27 9
-37 20 -10 11 -26 20 -35 20 -10 0 -20 9 -23 20 -3 12 -14 20 -26 20 -12 0
-29 9 -38 20 -10 11 -25 20 -35 20 -10 0 -18 7 -18 15 0 8 -16 19 -40 25 -24
6 -40 17 -40 25 0 8 -7 15 -16 15 -9 0 -27 9 -41 20 -14 11 -34 20 -43 20 -10
0 -20 9 -23 20 -3 13 -14 20 -31 20 -15 0 -31 8 -38 20 -7 11 -20 20 -29 20
-9 0 -24 9 -34 20 -10 11 -29 20 -42 20 -13 0 -23 6 -23 14 0 15 -21 26 -52
26 -11 0 -22 8 -25 20 -3 13 -14 20 -29 20 -13 0 -33 9 -44 20 -11 11 -25 20
-31 20 -6 0 -22 9 -36 20 -14 11 -32 20 -39 20 -8 0 -23 9 -34 20 -11 11 -31
20 -45 20 -15 0 -25 6 -25 14 0 15 -21 26 -50 26 -11 0 -24 9 -30 20 -7 13
-21 20 -40 20 -19 0 -33 7 -40 20 -7 13 -21 20 -40 20 -19 0 -33 7 -40 20 -7
13 -21 20 -40 20 -19 0 -33 7 -40 20 -7 13 -21 20 -40 20 -19 0 -33 7 -40 20
-7 13 -21 20 -40 20 -19 0 -33 7 -40 20 -7 14 -21 20 -44 20 -25 0 -35 5 -39
20 -4 15 -14 20 -36 20 -18 0 -40 9 -51 20 -11 11 -29 20 -41 20 -11 0 -32 9
-46 20 -14 11 -36 20 -49 20 -14 0 -32 9 -41 20 -11 12 -30 20 -50 20 -22 0
-36 6 -43 20 -7 14 -21 20 -43 20 -20 0 -39 8 -50 20 -10 12 -29 20 -47 20
-17 0 -39 9 -50 20 -11 11 -33 20 -50 20 -16 0 -33 7 -38 16 -5 9 -31 20 -58
25 -26 5 -52 16 -57 24 -4 9 -22 15 -42 15 -20 0 -38 6 -42 15 -5 8 -31 19
-58 24 -27 5 -54 16 -61 25 -6 10 -26 16 -47 16 -20 0 -39 5 -42 10 -8 12 -13
12 -45 -3z"/>
<path d="M17236 13366 c-8 -18 -19 -37 -25 -40 -6 -4 -11 -14 -11 -22 0 -8 -9
-23 -20 -34 -11 -11 -20 -29 -20 -40 0 -10 -9 -24 -20 -30 -11 -6 -20 -20 -20
-30 0 -11 -9 -29 -20 -40 -11 -11 -20 -25 -20 -31 0 -6 -9 -22 -20 -36 -11
-14 -20 -34 -20 -43 0 -10 -9 -20 -20 -23 -12 -3 -20 -14 -20 -25 0 -31 -11
-52 -26 -52 -8 0 -14 -8 -14 -18 0 -10 -9 -25 -20 -35 -11 -9 -20 -26 -20 -38
0 -12 -8 -23 -20 -26 -11 -3 -20 -13 -20 -23 0 -9 -9 -29 -20 -43 -11 -14 -20
-32 -20 -40 0 -8 -9 -17 -20 -20 -12 -3 -20 -14 -20 -26 0 -12 -9 -29 -20 -38
-11 -10 -20 -25 -20 -35 0 -10 -7 -18 -15 -18 -9 0 -18 -13 -22 -31 -3 -17
-14 -36 -24 -42 -11 -7 -19 -19 -19 -28 0 -9 -9 -19 -20 -22 -11 -3 -20 -14
-20 -25 0 -10 -9 -27 -20 -37 -11 -10 -20 -26 -20 -37 0 -10 -7 -18 -15 -18
-9 0 -19 -10 -24 -23 -5 -13 -16 -29 -25 -36 -9 -7 -16 -22 -16 -33 0 -11 -9
-22 -20 -25 -11 -3 -20 -13 -20 -23 0 -10 -7 -20 -15 -23 -8 -4 -21 -22 -29
-42 -8 -19 -20 -35 -25 -35 -6 0 -11 -9 -11 -20 0 -13 -7 -20 -20 -20 -13 0
-20 -7 -20 -20 0 -11 -5 -20 -10 -20 -6 0 -18 -16 -27 -35 -9 -19 -20 -35 -25
-35 -5 0 -13 -11 -18 -25 -5 -14 -16 -25 -25 -25 -8 0 -15 -9 -15 -20 0 -11
-7 -20 -15 -20 -8 0 -22 -15 -30 -32 -32 -67 -46 -88 -61 -88 -7 0 -14 -9 -14
-20 0 -12 -7 -20 -16 -20 -9 0 -18 -9 -21 -20 -3 -11 -9 -20 -14 -20 -4 0 -27
-27 -49 -60 -22 -33 -45 -60 -50 -60 -6 0 -10 -7 -10 -16 0 -9 -9 -18 -20 -21
-11 -3 -20 -13 -20 -23 0 -10 -9 -20 -20 -23 -11 -3 -20 -12 -20 -21 0 -9 -7
-16 -15 -16 -8 0 -15 -4 -15 -9 0 -8 -43 -68 -73 -102 -7 -8 -16 -23 -20 -32
-3 -9 -13 -17 -22 -17 -8 0 -15 -7 -15 -16 0 -9 -9 -18 -20 -21 -11 -3 -20
-14 -20 -24 0 -12 -7 -19 -20 -19 -13 0 -20 -7 -20 -20 0 -13 -7 -20 -20 -20
-13 0 -20 -7 -20 -19 0 -10 -9 -21 -20 -24 -11 -3 -20 -12 -20 -21 0 -9 -7
-16 -15 -16 -9 0 -18 -7 -21 -15 -10 -25 -91 -112 -294 -315 -206 -207 -310
-304 -335 -314 -8 -3 -15 -12 -15 -21 0 -8 -7 -15 -16 -15 -9 0 -18 -9 -21
-20 -3 -11 -12 -20 -20 -20 -8 0 -17 -9 -20 -20 -3 -11 -14 -20 -24 -20 -12 0
-19 -7 -19 -20 0 -13 -7 -20 -19 -20 -10 0 -21 -9 -24 -20 -3 -11 -12 -20 -21
-20 -9 0 -16 -7 -16 -15 0 -9 -7 -18 -15 -21 -8 -4 -15 -13 -15 -21 0 -8 7
-21 15 -29 8 -9 15 -33 15 -56 0 -25 8 -49 20 -65 13 -16 20 -41 20 -67 0 -23
9 -58 20 -79 12 -23 20 -56 20 -87 0 -30 8 -66 19 -88 13 -27 20 -68 23 -150
4 -73 10 -118 19 -129 11 -12 15 -79 17 -305 l4 -288 36 0 c20 1 55 9 77 20
25 12 62 20 100 20 38 0 75 8 100 20 24 12 62 19 94 20 37 0 61 6 73 17 13 11
42 19 86 21 44 3 76 11 94 23 17 13 43 19 80 19 35 0 64 7 86 20 18 11 50 20
73 20 22 0 51 8 66 17 14 9 52 20 84 24 32 4 65 14 74 23 10 10 33 16 62 16
29 0 53 6 65 17 10 9 44 20 75 24 32 4 62 14 68 22 5 8 32 16 59 19 28 3 55
12 60 20 6 9 35 17 65 20 35 4 57 11 63 22 6 10 22 16 47 16 22 0 48 8 62 19
13 10 44 21 69 24 24 3 49 13 56 21 6 9 25 16 43 16 18 0 39 8 51 20 13 13 33
20 60 20 25 0 42 6 48 16 5 9 31 20 58 25 26 5 52 16 57 24 4 9 22 15 40 15
20 0 39 8 50 20 9 11 29 20 46 20 15 0 40 9 54 20 14 11 37 20 51 20 14 0 34
9 43 20 10 11 30 20 45 20 16 0 37 9 48 20 11 11 31 20 44 20 13 0 35 9 49 20
14 11 35 20 46 20 12 0 30 9 41 20 11 11 33 20 51 20 22 0 32 5 36 20 4 15 14
20 39 20 23 0 37 6 44 20 7 13 21 20 40 20 17 0 39 9 50 20 11 11 29 20 40 20
11 0 29 9 40 20 11 11 29 20 40 20 11 0 29 9 40 20 11 11 31 20 44 20 15 0 26
7 29 20 4 15 14 20 36 20 20 0 34 7 41 20 7 13 21 20 40 20 19 0 33 7 40 20 6
11 19 20 30 20 29 0 50 11 50 26 0 8 9 14 20 14 18 0 20 7 20 88 0 56 -7 115
-20 163 -13 48 -20 107 -20 169 0 68 -5 104 -16 125 -10 18 -19 69 -23 132 -4
57 -13 108 -20 117 -7 8 -16 56 -21 107 -5 55 -14 95 -21 100 -8 4 -15 36 -17
75 -3 42 -12 79 -23 98 -12 19 -19 50 -19 79 0 28 -7 58 -17 74 -9 14 -20 52
-24 84 -4 32 -14 65 -23 74 -10 11 -16 34 -16 66 0 27 -4 49 -8 49 -14 0 -32
48 -32 84 0 18 -9 45 -20 59 -11 14 -20 40 -20 59 0 18 -9 44 -20 58 -11 14
-20 41 -20 62 0 22 -6 40 -15 45 -8 5 -19 31 -24 57 -5 27 -16 53 -25 58 -10
5 -16 22 -16 42 0 18 -9 45 -20 59 -11 14 -20 39 -20 56 0 20 -7 34 -20 41
-13 7 -20 21 -20 41 0 17 -9 42 -20 56 -11 14 -20 36 -20 49 0 14 -9 32 -20
41 -11 10 -20 27 -20 39 0 33 -10 54 -26 54 -9 0 -14 12 -14 35 0 24 -6 37
-20 45 -13 7 -20 21 -20 40 0 19 -7 33 -20 40 -13 7 -20 21 -20 40 0 19 -7 33
-20 40 -13 7 -20 21 -20 40 0 19 -7 33 -20 40 -11 6 -20 19 -20 30 0 29 -11
50 -26 50 -8 0 -14 10 -14 25 0 14 -9 34 -20 45 -11 11 -20 25 -20 31 0 6 -9
22 -20 36 -11 14 -20 33 -20 42 0 9 -9 22 -20 29 -12 7 -20 23 -20 38 0 17 -7
28 -20 31 -11 3 -20 13 -20 23 0 9 -8 28 -18 41 -10 13 -21 32 -25 42 -10 27
-25 20 -41 -17z"/>
<path d="M11648 11954 c-14 -14 -8 -105 9 -137 9 -18 20 -72 24 -121 4 -51 12
-92 19 -96 8 -5 15 -49 20 -117 4 -60 13 -120 20 -133 8 -14 17 -76 21 -143 4
-73 12 -123 20 -133 9 -11 15 -63 19 -157 4 -91 11 -151 20 -167 9 -17 15 -80
19 -200 6 -169 7 -176 31 -201 23 -24 34 -27 113 -30 57 -3 90 -8 96 -17 4 -7
32 -15 62 -18 30 -3 66 -15 81 -25 15 -10 43 -19 63 -19 23 0 35 -5 35 -14 0
-16 21 -26 55 -26 13 0 27 -5 30 -10 8 -14 35 6 35 26 0 7 9 18 20 24 13 7 20
21 20 40 0 17 9 39 20 50 11 11 20 29 20 41 0 11 9 32 20 46 11 14 20 33 20
43 0 10 9 29 20 43 11 14 20 37 20 51 0 14 9 34 20 43 11 10 20 30 20 45 0 16
9 37 20 48 11 11 20 31 20 44 0 13 9 35 20 49 11 14 20 39 20 56 0 20 7 34 20
41 14 7 20 21 20 44 0 18 9 45 20 59 11 14 20 39 20 56 0 17 7 34 16 39 9 5
20 31 25 58 5 27 16 54 24 60 8 6 15 26 15 44 0 17 9 43 20 57 11 14 20 41 20
59 0 21 8 42 20 54 13 13 20 33 20 60 0 27 5 43 15 46 8 4 15 11 15 17 0 18
-63 67 -87 67 -13 0 -23 6 -23 14 0 16 -21 26 -55 26 -14 0 -25 7 -28 20 -4
15 -14 20 -36 20 -18 0 -40 9 -51 20 -11 11 -31 20 -44 20 -13 0 -35 9 -49 20
-14 11 -39 20 -56 20 -16 0 -34 7 -39 15 -4 9 -31 19 -61 24 -29 5 -57 14 -61
21 -4 7 -32 15 -61 18 -31 3 -64 13 -78 23 -16 13 -41 19 -80 19 -34 1 -71 8
-96 20 -29 14 -63 20 -120 20 -44 1 -98 7 -120 16 -46 17 -186 30 -197 18z"/>
<path d="M11146 11938 c-11 -6 -74 -14 -140 -18 -76 -4 -135 -13 -158 -24 -21
-9 -63 -16 -95 -16 -41 0 -67 -6 -88 -20 -20 -13 -47 -20 -79 -20 -31 0 -56
-6 -67 -16 -10 -9 -40 -19 -66 -22 -26 -2 -60 -13 -75 -23 -14 -11 -40 -19
-58 -19 -17 0 -43 -9 -57 -20 -14 -11 -41 -20 -59 -20 -21 0 -42 -8 -54 -20
-11 -11 -30 -20 -42 -20 -13 0 -34 -9 -48 -20 -14 -11 -35 -20 -47 -20 -32 0
-53 -10 -53 -26 0 -9 -12 -14 -35 -14 -23 0 -37 -6 -44 -19 -6 -10 -24 -21
-41 -24 -32 -7 -40 -24 -15 -33 8 -4 15 -15 15 -25 0 -10 7 -19 15 -19 9 0 20
-11 25 -24 5 -13 12 -25 17 -27 4 -2 26 -28 48 -56 21 -29 42 -53 46 -53 4 0
9 -9 12 -20 3 -11 12 -20 20 -20 8 0 17 -9 20 -20 3 -11 12 -20 21 -20 9 0 16
-8 16 -20 0 -12 7 -20 16 -20 9 0 18 -9 21 -20 3 -11 9 -20 13 -20 8 0 38 -43
68 -97 7 -13 20 -23 28 -23 7 0 14 -9 14 -20 0 -13 7 -20 20 -20 13 0 20 -7
20 -20 0 -11 6 -20 13 -20 6 0 28 -27 47 -60 19 -33 41 -60 48 -60 6 0 12 -9
12 -20 0 -11 7 -20 15 -20 9 0 20 -11 25 -25 5 -14 14 -25 19 -25 5 0 14 -14
20 -30 5 -17 17 -33 26 -36 8 -3 15 -15 15 -25 0 -10 7 -19 15 -19 9 0 20 -11
25 -25 5 -14 13 -25 18 -25 5 0 16 -16 25 -35 9 -19 21 -35 27 -35 5 0 10 -9
10 -20 0 -11 7 -20 14 -20 15 0 29 -21 61 -87 8 -18 22 -33 30 -33 8 0 15 -9
15 -20 0 -11 5 -20 11 -20 5 0 17 -16 25 -35 8 -20 21 -38 29 -42 8 -3 15 -14
15 -24 0 -11 7 -19 16 -19 9 0 18 -9 21 -20 4 -16 14 -20 49 -20 31 0 50 6 64
20 11 11 33 20 50 20 16 0 33 7 37 15 5 8 32 19 61 25 29 5 60 17 68 25 9 9
34 15 60 15 25 0 62 9 84 20 22 11 51 20 65 20 l25 0 0 113 c0 71 -6 132 -16
167 -8 30 -19 121 -23 202 -5 97 -12 152 -20 162 -9 10 -16 61 -21 139 -4 77
-13 136 -24 159 -10 24 -16 65 -16 112 0 52 -6 91 -20 126 -12 31 -20 74 -20
113 0 38 -6 74 -16 92 -9 17 -20 67 -24 112 -5 67 -11 86 -31 107 -27 29 -35
30 -63 14z"/>
<path d="M9403 11301 c-3 -11 -13 -21 -23 -21 -10 0 -20 -7 -23 -15 -4 -8 -22
-21 -42 -29 -19 -8 -35 -19 -35 -24 0 -5 -9 -12 -20 -15 -11 -3 -20 -12 -20
-21 0 -9 -8 -16 -20 -16 -11 0 -20 -7 -20 -15 0 -9 -8 -19 -18 -23 -25 -10
-66 -41 -112 -83 -21 -20 -46 -39 -55 -42 -8 -4 -15 -13 -15 -21 0 -7 -9 -16
-20 -19 -11 -3 -20 -12 -20 -21 0 -9 -8 -16 -20 -16 -13 0 -20 -7 -20 -20 0
-13 -7 -20 -20 -20 -13 0 -20 -7 -20 -20 0 -13 -7 -20 -20 -20 -13 0 -20 -7
-20 -19 0 -10 -9 -21 -20 -24 -11 -3 -20 -12 -20 -20 0 -8 -9 -17 -20 -20 -11
-3 -20 -12 -20 -21 0 -9 -7 -16 -15 -16 -9 0 -20 -11 -25 -25 -5 -14 -14 -25
-19 -25 -5 0 -14 -13 -21 -30 -7 -16 -16 -30 -21 -30 -5 0 -14 -11 -19 -25 -5
-14 -16 -25 -25 -25 -8 0 -15 -9 -15 -20 0 -11 -7 -20 -15 -20 -9 0 -19 -10
-24 -23 -5 -13 -16 -29 -25 -36 -9 -7 -16 -22 -16 -33 0 -11 -9 -22 -20 -25
-11 -3 -20 -14 -20 -24 0 -11 -7 -19 -15 -19 -9 0 -18 -12 -22 -30 -3 -17 -14
-37 -25 -44 -14 -10 -19 -23 -16 -47 3 -32 5 -34 53 -41 27 -4 54 -13 60 -21
5 -8 32 -16 59 -19 28 -3 55 -12 60 -20 6 -8 33 -17 60 -20 29 -4 55 -13 61
-22 7 -9 27 -16 47 -16 20 0 46 -9 61 -20 14 -11 40 -20 57 -20 18 0 38 -7 44
-15 6 -8 33 -19 60 -24 27 -5 53 -16 58 -25 5 -10 22 -16 42 -16 18 0 45 -9
59 -20 14 -11 39 -20 56 -20 18 0 34 -6 37 -14 3 -8 30 -20 59 -26 29 -6 56
-18 59 -26 3 -8 18 -14 36 -14 18 0 37 -8 47 -20 10 -11 30 -20 46 -20 16 0
40 -9 54 -20 14 -11 36 -20 49 -20 13 0 33 -9 44 -20 11 -11 33 -20 50 -20 19
0 33 -7 40 -20 7 -13 21 -20 40 -20 17 0 39 -9 50 -20 11 -11 29 -20 40 -20
11 0 29 -9 40 -20 11 -11 30 -20 43 -20 12 0 33 -9 47 -20 14 -11 35 -20 47
-20 12 0 30 -8 40 -19 34 -35 133 -36 133 -1 0 9 9 25 19 34 11 10 22 28 25
42 4 13 13 24 21 24 8 0 15 9 15 20 0 13 7 20 20 20 13 0 20 7 20 20 0 11 7
20 15 20 9 0 18 7 21 15 8 19 133 145 144 145 20 0 20 22 1 46 -12 15 -21 36
-21 46 0 11 -9 22 -20 25 -11 3 -20 14 -20 24 0 11 -6 19 -14 19 -8 0 -20 15
-26 34 -6 19 -17 37 -25 40 -8 3 -15 15 -15 26 0 11 -7 20 -14 20 -15 0 -29
21 -61 88 -8 17 -22 32 -30 32 -8 0 -15 9 -15 20 0 11 -6 20 -13 20 -7 0 -21
15 -31 33 -42 78 -48 87 -62 87 -7 0 -14 9 -14 20 0 11 -7 20 -14 20 -15 0
-29 21 -61 88 -8 17 -22 32 -30 32 -8 0 -15 9 -15 20 0 11 -7 20 -15 20 -9 0
-19 8 -22 18 -4 9 -15 23 -25 30 -10 7 -18 19 -18 26 0 8 -7 20 -16 27 -9 7
-20 23 -25 36 -5 13 -15 23 -24 23 -8 0 -15 9 -15 20 0 13 -7 20 -20 20 -13 0
-20 7 -20 20 0 11 -7 20 -15 20 -9 0 -19 8 -22 18 -6 16 -36 58 -66 92 -8 8
-17 23 -20 33 -4 9 -13 17 -21 17 -7 0 -16 9 -19 20 -3 11 -12 20 -21 20 -9 0
-16 8 -16 19 0 10 -9 21 -20 24 -11 3 -20 12 -20 20 0 8 -9 17 -20 20 -11 3
-20 12 -20 21 0 9 -4 16 -9 16 -8 0 -77 83 -83 100 -2 5 -16 12 -31 15 -23 6
-29 4 -34 -14z"/>
<path d="M13320 11247 c0 -20 -8 -39 -20 -50 -13 -11 -20 -29 -20 -52 0 -22
-8 -43 -20 -55 -12 -12 -20 -34 -20 -52 0 -18 -9 -44 -20 -58 -11 -14 -20 -39
-20 -55 0 -18 -8 -38 -20 -48 -11 -9 -20 -29 -20 -46 0 -15 -9 -40 -20 -54
-11 -14 -20 -38 -20 -54 0 -16 -9 -36 -20 -46 -11 -9 -20 -29 -20 -44 0 -16
-9 -39 -20 -53 -11 -14 -20 -35 -20 -47 0 -13 -9 -32 -20 -43 -11 -11 -20 -32
-20 -48 0 -15 -9 -35 -20 -45 -11 -9 -20 -29 -20 -43 0 -14 -9 -37 -20 -51
-11 -14 -20 -33 -20 -43 0 -10 -9 -29 -20 -43 -11 -14 -20 -35 -20 -46 0 -12
-9 -30 -20 -41 -11 -11 -20 -29 -20 -39 0 -30 -11 -51 -26 -51 -9 0 -14 -12
-14 -34 0 -23 -7 -38 -22 -50 l-23 -16 23 -16 c12 -9 22 -20 22 -24 0 -5 17
-26 39 -48 21 -21 42 -49 45 -60 4 -12 12 -22 17 -22 5 0 14 -11 19 -25 5 -14
16 -25 25 -25 8 0 15 -8 15 -18 0 -10 9 -25 20 -35 11 -9 20 -26 20 -37 0 -10
9 -24 20 -30 11 -6 20 -19 20 -30 0 -28 11 -50 25 -50 7 0 15 -9 18 -20 3 -11
10 -20 17 -20 7 0 14 9 17 20 3 11 13 20 23 20 9 0 25 9 35 20 10 11 27 20 37
20 11 0 22 9 25 20 3 11 14 20 24 20 11 0 22 7 25 15 3 8 21 19 40 25 19 6 34
18 34 26 0 8 8 14 19 14 10 0 21 9 24 20 3 11 14 20 25 20 11 0 26 7 33 16 7
9 23 20 36 25 13 5 23 15 23 24 0 8 9 15 19 15 10 0 21 7 24 15 4 8 22 21 42
29 19 8 35 20 35 25 0 6 9 11 20 11 13 0 20 7 20 20 0 13 7 20 19 20 10 0 22
7 25 15 3 9 19 21 36 26 16 6 30 15 30 20 0 5 11 14 25 19 14 5 25 16 25 25 0
8 9 15 20 15 11 0 20 7 20 15 0 9 10 19 23 24 13 5 29 16 36 25 7 9 19 16 27
16 7 0 19 8 26 18 7 10 21 21 31 25 9 3 17 13 17 22 0 8 9 15 20 15 12 0 20 7
20 16 0 9 8 18 18 20 9 3 25 19 35 36 16 28 16 32 3 40 -9 5 -16 20 -16 34 0
13 -9 32 -20 41 -11 10 -20 24 -20 33 0 8 -9 26 -20 40 -11 14 -20 32 -20 40
0 8 -9 21 -20 28 -12 7 -20 23 -20 38 0 17 -7 28 -20 31 -11 3 -20 13 -20 23
0 9 -9 25 -20 35 -11 10 -20 27 -20 37 0 11 -9 22 -20 25 -11 3 -20 13 -20 23
0 10 -7 21 -15 24 -9 3 -21 19 -26 36 -6 16 -15 30 -20 30 -5 0 -14 11 -19 25
-5 14 -16 25 -25 25 -8 0 -15 8 -15 19 0 10 -9 21 -20 24 -11 3 -20 12 -20 21
0 9 -7 16 -15 16 -9 0 -19 8 -22 17 -4 10 -52 63 -108 118 -55 56 -108 104
-118 108 -9 3 -17 13 -17 22 0 8 -7 15 -16 15 -9 0 -18 9 -21 20 -4 16 -14 20
-44 20 -37 0 -39 -1 -39 -33z"/>
<path d="M8160 9821 c0 -10 -7 -24 -15 -31 -9 -7 -20 -32 -26 -56 -6 -23 -17
-45 -25 -48 -8 -3 -14 -20 -14 -40 0 -21 -6 -38 -15 -43 -8 -5 -19 -30 -24
-56 -5 -26 -15 -55 -24 -65 -8 -9 -17 -39 -20 -66 -3 -30 -11 -52 -21 -58 -11
-6 -16 -23 -16 -55 0 -29 -6 -53 -16 -64 -9 -11 -19 -46 -23 -81 -4 -35 -15
-77 -24 -95 -10 -19 -17 -55 -17 -86 0 -30 -9 -83 -20 -117 -14 -44 -20 -90
-20 -154 0 -51 -6 -116 -14 -146 -8 -30 -16 -95 -18 -145 l-3 -90 53 -3 c39
-2 64 2 93 17 26 14 59 21 95 21 34 0 69 7 92 19 20 10 68 21 106 24 38 3 72
10 76 17 5 8 49 15 116 20 68 5 120 14 139 24 20 10 55 16 105 16 50 0 85 5
105 17 21 11 71 18 165 24 80 4 151 13 175 23 25 9 74 15 130 16 50 0 115 7
145 15 36 11 129 19 273 24 170 6 221 11 232 22 23 23 45 114 54 228 5 63 14
106 21 111 7 4 15 32 18 61 2 30 9 60 14 67 18 21 -31 72 -69 72 -13 0 -26 6
-29 14 -3 8 -20 18 -37 22 -18 3 -44 15 -59 25 -14 11 -33 19 -41 19 -8 0 -26
9 -40 20 -14 11 -35 20 -46 20 -12 0 -30 9 -41 20 -11 11 -33 20 -50 20 -19 0
-33 7 -40 20 -7 13 -21 20 -40 20 -17 0 -39 9 -50 20 -11 11 -31 20 -44 20
-13 0 -35 9 -49 20 -14 11 -39 20 -56 20 -20 0 -34 7 -41 20 -7 14 -21 20 -43
20 -18 0 -43 9 -57 20 -14 11 -37 20 -53 20 -15 0 -35 9 -44 20 -11 12 -30 20
-49 20 -17 0 -43 9 -57 20 -14 11 -39 20 -56 20 -18 0 -40 9 -51 20 -13 13
-33 20 -60 20 -25 0 -42 6 -48 16 -5 9 -31 20 -58 25 -27 5 -53 15 -59 23 -5
7 -32 15 -59 18 -28 3 -55 12 -60 20 -6 8 -33 17 -60 20 -28 3 -55 12 -60 20
-6 8 -33 17 -60 20 -29 4 -55 13 -61 22 -9 11 -28 16 -69 16 -48 0 -56 -3 -56
-19z"/>
<path d="M18280 9540 c-7 -13 -21 -20 -40 -20 -19 0 -33 -7 -40 -20 -7 -13
-21 -20 -40 -20 -19 0 -33 -7 -40 -20 -7 -13 -21 -20 -40 -20 -19 0 -33 -7
-40 -20 -7 -13 -21 -20 -40 -20 -19 0 -33 -7 -40 -20 -7 -13 -21 -20 -40 -20
-19 0 -33 -7 -40 -20 -7 -13 -21 -20 -41 -20 -17 0 -42 -9 -56 -20 -14 -11
-33 -20 -42 -20 -9 0 -27 -9 -41 -20 -14 -11 -35 -20 -47 -20 -13 0 -32 -9
-43 -20 -11 -11 -33 -20 -50 -20 -19 0 -33 -7 -40 -20 -7 -13 -21 -20 -41 -20
-17 0 -42 -9 -56 -20 -14 -11 -39 -20 -54 -20 -17 0 -37 -9 -46 -20 -11 -13
-30 -20 -51 -20 -20 0 -35 -6 -38 -15 -4 -8 -24 -18 -47 -22 -22 -3 -48 -14
-59 -25 -10 -10 -32 -18 -50 -18 -18 0 -44 -9 -58 -20 -14 -11 -40 -20 -57
-20 -19 0 -41 -8 -53 -20 -13 -13 -33 -20 -58 -20 -25 0 -43 -7 -55 -20 -11
-13 -29 -20 -52 -20 -21 0 -43 -8 -54 -19 -10 -10 -39 -20 -65 -23 -26 -3 -55
-13 -65 -22 -10 -9 -33 -16 -53 -16 -20 0 -46 -9 -61 -20 -16 -12 -40 -20 -65
-20 -24 0 -47 -7 -57 -17 -9 -9 -39 -18 -68 -21 -29 -3 -57 -11 -62 -19 -6 -8
-39 -18 -74 -23 -35 -5 -71 -16 -80 -24 -10 -9 -35 -16 -59 -16 -24 0 -55 -8
-74 -20 -21 -13 -51 -20 -82 -20 -32 0 -56 -6 -67 -16 -10 -9 -46 -20 -81 -24
-35 -4 -76 -14 -93 -23 -18 -10 -53 -17 -85 -17 -36 0 -66 -7 -86 -19 -19 -11
-56 -20 -98 -23 -40 -2 -71 -9 -75 -17 -5 -8 -43 -16 -97 -21 -49 -4 -102 -15
-119 -24 -19 -10 -54 -16 -95 -16 -71 0 -164 -31 -174 -59 -4 -9 -13 -27 -21
-41 -8 -14 -15 -41 -15 -61 0 -21 -8 -47 -20 -62 -11 -14 -20 -39 -20 -57 0
-18 -9 -43 -20 -57 -11 -14 -20 -36 -20 -49 0 -13 -9 -33 -20 -44 -11 -11 -20
-33 -20 -50 0 -19 -7 -33 -20 -40 -14 -7 -20 -21 -20 -44 0 -25 -5 -35 -20
-39 -15 -4 -20 -14 -20 -37 0 -23 -5 -33 -20 -37 -13 -3 -20 -14 -20 -29 0
-13 -9 -32 -20 -41 -11 -10 -20 -24 -20 -33 0 -8 -8 -20 -19 -27 -10 -6 -21
-25 -24 -42 -4 -18 -13 -31 -22 -31 -8 0 -15 -9 -15 -20 0 -11 -6 -20 -14 -20
-8 0 -20 -16 -26 -35 -6 -19 -16 -35 -21 -35 -5 0 -14 -11 -19 -25 -5 -14 -16
-25 -25 -25 -10 0 -15 -10 -15 -34 0 -37 12 -46 61 -46 16 0 38 -9 49 -20 12
-12 33 -20 51 -20 18 0 37 -7 43 -16 7 -8 32 -18 56 -21 25 -3 53 -14 63 -24
11 -12 32 -19 52 -19 22 0 43 -8 55 -20 13 -13 33 -20 60 -20 26 0 47 -7 59
-19 10 -10 39 -20 66 -24 27 -3 54 -11 59 -19 6 -8 33 -17 60 -20 29 -4 55
-13 61 -22 8 -10 27 -16 56 -16 27 0 56 -8 74 -20 17 -11 47 -20 68 -20 22 0
51 -8 65 -19 15 -10 49 -21 75 -23 26 -3 56 -13 66 -22 11 -10 36 -16 67 -16
31 0 61 -7 82 -20 20 -13 50 -20 80 -20 29 0 59 -8 80 -20 20 -13 50 -20 80
-20 30 0 58 -7 77 -20 22 -14 47 -20 92 -20 45 0 72 -6 95 -20 22 -13 51 -20
88 -20 33 -1 71 -8 95 -20 28 -14 62 -19 113 -20 48 0 84 -6 105 -17 19 -10
71 -19 126 -24 58 -4 96 -12 101 -20 6 -8 49 -14 137 -19 77 -4 138 -12 153
-20 16 -9 79 -16 171 -21 85 -4 156 -12 169 -19 13 -7 75 -15 137 -18 100 -4
113 -3 113 12 0 9 9 25 20 36 11 11 20 31 20 44 0 15 7 26 20 29 15 4 20 14
20 36 0 20 7 34 20 41 11 6 20 19 20 30 0 29 11 50 26 50 8 0 14 10 14 24 0
35 10 56 26 56 9 0 14 12 14 35 0 24 6 37 20 45 13 7 20 21 20 38 0 15 9 35
20 45 11 9 20 29 20 43 0 14 9 37 20 51 11 14 20 36 20 49 0 13 9 33 20 44 12
12 20 33 20 51 0 18 7 37 16 43 9 7 20 34 25 60 5 27 15 54 23 60 7 6 16 30
19 54 3 24 12 49 20 55 8 7 17 34 20 61 3 28 11 55 19 60 8 6 17 34 20 63 3
29 12 59 21 68 11 10 17 33 17 62 0 30 7 53 20 70 14 18 20 41 20 76 0 33 6
57 16 69 11 11 19 46 24 98 4 43 13 87 21 96 8 10 16 53 20 107 4 55 11 92 19
97 9 5 15 50 20 134 5 78 13 132 21 142 9 11 15 79 20 232 4 119 12 237 18
262 6 25 11 105 11 178 l0 132 -50 0 c-39 0 -52 -4 -60 -20z"/>
<path d="M9610 8190 c-95 -22 -163 -30 -250 -30 -61 -1 -109 -6 -135 -16 -25
-10 -93 -19 -182 -23 -96 -5 -146 -11 -158 -21 -10 -8 -49 -15 -98 -17 -50 -3
-100 -12 -129 -24 -32 -13 -70 -19 -122 -19 -52 0 -88 -6 -121 -20 -29 -13
-69 -20 -106 -20 -40 0 -69 -6 -86 -17 -16 -11 -56 -20 -101 -24 -43 -3 -77
-11 -82 -19 -5 -7 -37 -14 -81 -17 -119 -8 -119 -9 -119 -166 0 -107 4 -144
20 -190 12 -34 20 -82 20 -122 0 -43 6 -77 17 -98 9 -18 20 -65 23 -105 4 -41
12 -77 18 -81 7 -4 16 -39 21 -79 5 -42 16 -78 25 -87 10 -10 16 -34 16 -62 0
-30 7 -53 20 -70 11 -15 20 -41 20 -60 0 -20 9 -46 20 -60 11 -14 20 -41 20
-59 0 -21 8 -42 20 -54 11 -11 20 -33 20 -50 0 -17 9 -39 20 -50 11 -11 20
-33 20 -50 0 -17 9 -39 20 -50 11 -11 20 -29 20 -41 0 -11 8 -33 18 -47 10
-15 22 -35 25 -44 9 -24 28 -23 34 2 3 11 14 20 24 20 12 0 19 7 19 20 0 13 7
20 20 20 13 0 20 7 20 20 0 13 7 20 19 20 10 0 21 9 24 20 3 11 12 20 21 20 9
0 16 7 16 15 0 9 7 18 15 22 9 3 34 23 56 44 22 22 44 39 47 39 4 0 35 27 69
59 35 32 70 61 78 65 8 3 15 12 15 21 0 8 9 15 20 15 13 0 20 7 20 20 0 13 7
20 20 20 11 0 20 7 20 15 0 9 8 18 18 22 9 3 24 12 32 20 32 29 93 73 101 73
5 0 9 7 9 15 0 8 9 15 20 15 13 0 20 7 20 20 0 13 7 20 20 20 11 0 20 7 20 15
0 9 8 19 18 22 16 6 58 36 92 66 8 8 23 17 33 20 9 4 17 13 17 22 0 8 8 15 19
15 10 0 21 9 24 20 3 11 14 20 25 20 10 0 27 9 37 20 10 11 26 22 36 25 11 4
19 13 19 21 0 8 9 14 20 14 11 0 20 7 20 14 0 15 21 29 88 61 17 8 32 22 32
30 0 8 9 15 20 15 11 0 20 7 20 14 0 15 21 29 88 61 17 8 32 22 32 30 0 8 8
15 18 15 10 0 25 9 35 20 9 11 24 20 32 20 8 0 20 9 27 20 7 11 20 20 29 20 9
0 19 9 22 20 3 12 14 20 26 20 12 0 29 9 38 20 10 11 25 20 34 20 9 0 19 9 22
20 3 11 14 20 25 20 11 0 26 7 33 16 7 9 24 20 37 25 21 8 24 14 18 41 -3 17
-12 36 -20 42 -8 6 -16 32 -19 58 -2 26 -12 54 -21 63 -10 10 -16 34 -16 63
-1 26 -9 65 -20 87 -11 22 -19 59 -20 83 l0 42 -157 -1 c-87 -1 -174 -5 -193
-9z"/>
<path d="M10225 7340 c-10 -11 -27 -20 -37 -20 -11 0 -22 -9 -25 -20 -3 -11
-13 -20 -22 -20 -9 0 -24 -9 -34 -20 -9 -11 -26 -20 -38 -20 -12 0 -23 -8 -26
-20 -3 -11 -13 -20 -23 -20 -10 0 -20 -7 -23 -15 -4 -8 -22 -21 -42 -29 -19
-8 -35 -20 -35 -25 0 -6 -9 -11 -20 -11 -11 0 -20 -7 -20 -14 0 -15 -21 -29
-87 -61 -18 -8 -33 -22 -33 -30 0 -8 -9 -15 -20 -15 -11 0 -20 -7 -20 -15 0
-9 -10 -19 -23 -24 -13 -5 -29 -16 -36 -25 -7 -9 -22 -16 -33 -16 -11 0 -22
-9 -25 -20 -3 -11 -14 -20 -24 -20 -11 0 -19 -7 -19 -15 0 -9 -11 -20 -25 -25
-14 -5 -25 -13 -25 -18 0 -5 -16 -16 -35 -25 -19 -9 -35 -21 -35 -26 0 -5 -9
-11 -20 -14 -11 -3 -20 -12 -20 -21 0 -9 -8 -16 -20 -16 -11 0 -20 -7 -20 -15
0 -9 -8 -19 -17 -22 -17 -6 -59 -36 -93 -66 -8 -8 -23 -17 -32 -20 -10 -4 -18
-13 -18 -22 0 -8 -9 -15 -20 -15 -13 0 -20 -7 -20 -20 0 -13 -7 -20 -20 -20
-11 0 -20 -7 -20 -15 0 -8 -4 -15 -9 -15 -6 0 -25 -14 -43 -31 -18 -17 -50
-42 -70 -55 -21 -13 -38 -28 -38 -33 0 -5 -9 -11 -20 -14 -11 -3 -20 -12 -20
-21 0 -9 -8 -16 -20 -16 -13 0 -20 -7 -20 -20 0 -13 -7 -20 -20 -20 -13 0 -20
-7 -20 -20 0 -13 -7 -20 -20 -20 -12 0 -20 -7 -20 -16 0 -9 -9 -18 -20 -21
-11 -3 -20 -12 -20 -19 0 -8 -4 -14 -9 -14 -4 0 -22 -12 -39 -27 -248 -224
-261 -238 -243 -256 6 -6 11 -21 11 -34 0 -13 9 -32 20 -43 11 -11 20 -24 20
-30 0 -5 9 -19 20 -30 11 -11 20 -29 20 -41 0 -12 8 -23 20 -26 11 -3 20 -14
20 -24 0 -11 5 -19 11 -19 5 0 17 -16 25 -35 8 -20 21 -38 29 -42 8 -3 15 -14
15 -24 0 -10 7 -19 15 -19 8 0 22 -15 30 -32 32 -67 46 -88 61 -88 7 0 14 -9
14 -20 0 -11 7 -20 15 -20 9 0 20 -11 25 -25 5 -14 14 -25 19 -25 5 0 12 -8
15 -17 3 -10 23 -37 45 -61 21 -23 42 -49 45 -57 3 -8 12 -15 21 -15 8 0 15
-9 15 -20 0 -13 7 -20 20 -20 13 0 20 -7 20 -19 0 -10 9 -21 20 -24 11 -3 20
-12 20 -20 0 -8 9 -17 20 -20 11 -3 20 -12 20 -20 0 -8 9 -17 20 -20 11 -3 20
-12 20 -20 0 -8 9 -17 20 -20 11 -3 20 -12 20 -20 0 -8 9 -17 20 -20 11 -3 20
-12 20 -20 0 -8 9 -17 20 -20 11 -3 20 -12 20 -20 0 -8 9 -17 20 -20 11 -3 20
-12 20 -21 0 -9 8 -16 20 -16 13 0 20 -7 20 -20 0 -13 7 -20 20 -20 11 0 20
-7 20 -15 0 -9 7 -18 15 -21 8 -3 34 -24 57 -45 24 -21 49 -39 55 -39 7 0 18
-9 25 -20 7 -11 21 -20 30 -20 11 0 18 -8 18 -20 0 -13 7 -20 20 -20 11 0 20
-5 20 -10 0 -21 29 -21 50 0 16 16 25 41 30 87 5 35 15 72 24 82 10 11 16 36
16 66 0 32 5 52 16 59 8 7 18 32 20 56 7 53 23 100 35 100 5 0 9 22 9 48 0 35
6 56 20 72 13 15 20 37 20 66 0 29 5 46 16 52 10 6 18 28 22 58 2 27 13 60 23
73 11 14 19 40 19 62 0 24 6 41 15 47 9 4 19 31 24 61 5 32 15 57 25 63 10 6
16 22 16 48 0 27 7 47 20 60 11 11 20 33 20 51 0 17 9 42 20 56 11 14 20 40
20 57 0 19 8 38 20 49 11 9 20 29 20 46 0 15 9 40 20 54 11 14 20 38 20 54 0
16 9 36 20 46 11 9 20 29 20 46 0 15 9 40 20 54 11 14 20 37 20 51 0 14 9 34
20 43 11 10 20 30 20 45 0 16 9 37 20 48 11 11 20 30 20 43 0 12 9 33 20 47
11 14 20 35 20 48 0 12 9 31 20 42 11 11 20 33 20 50 0 19 7 33 20 40 13 7 20
21 20 40 0 19 7 33 20 40 14 8 20 21 20 45 0 23 5 35 14 35 16 0 26 21 26 55
0 12 7 25 15 29 17 6 21 36 5 36 -5 0 -10 5 -10 11 0 7 -17 31 -37 55 -74 84
-91 105 -97 119 -3 8 -12 15 -21 15 -8 0 -15 9 -15 20 0 11 -7 20 -14 20 -15
0 -29 21 -61 88 -8 17 -22 32 -30 32 -8 0 -15 9 -15 20 0 13 -7 20 -18 20 -11
0 -27 -9 -37 -20z"/>
<path d="M13884 6975 c-4 -8 -15 -15 -25 -15 -10 0 -19 -7 -19 -15 0 -9 -8
-19 -17 -22 -10 -4 -24 -15 -31 -25 -7 -10 -20 -18 -28 -18 -8 0 -22 -9 -31
-20 -10 -11 -23 -20 -30 -20 -7 0 -17 -9 -23 -20 -6 -11 -15 -20 -21 -20 -6 0
-22 -9 -36 -20 -14 -11 -34 -20 -43 -20 -10 0 -20 -9 -23 -20 -3 -12 -14 -20
-26 -20 -12 0 -30 -9 -41 -20 -11 -11 -25 -20 -31 -20 -6 0 -22 -9 -36 -20
-14 -11 -32 -20 -39 -20 -8 0 -23 -9 -34 -20 -11 -11 -30 -20 -42 -20 -13 0
-34 -9 -48 -20 -14 -11 -35 -20 -47 -20 -32 0 -53 -10 -53 -26 0 -9 -12 -14
-34 -14 -41 0 -56 -18 -32 -36 17 -12 41 -50 65 -101 6 -13 17 -23 26 -23 8 0
15 -9 15 -20 0 -11 7 -20 14 -20 15 0 29 -21 61 -87 8 -18 22 -33 30 -33 8 0
15 -9 15 -20 0 -12 7 -20 16 -20 9 0 18 -9 21 -20 3 -11 10 -20 17 -20 6 0 26
-26 45 -56 19 -31 41 -58 48 -61 7 -3 13 -12 13 -20 0 -8 9 -17 20 -20 11 -3
20 -14 20 -24 0 -11 7 -19 15 -19 9 0 20 -11 25 -24 5 -13 12 -25 17 -27 4 -2
26 -28 48 -56 21 -29 43 -53 47 -53 4 0 8 -7 8 -16 0 -9 9 -18 20 -21 11 -3
20 -12 20 -20 0 -8 9 -17 20 -20 11 -3 20 -14 20 -24 0 -11 7 -19 16 -19 9 0
18 -9 21 -20 3 -11 12 -20 19 -20 8 0 17 -7 20 -15 4 -8 33 -42 65 -76 32 -34
59 -65 59 -69 0 -4 81 -90 180 -191 99 -101 180 -187 180 -191 0 -5 7 -11 15
-14 8 -4 39 -29 68 -56 28 -27 81 -75 117 -106 35 -32 79 -71 96 -88 17 -17
39 -34 48 -37 9 -4 16 -13 16 -21 0 -7 9 -16 20 -19 11 -3 20 -12 20 -21 0 -9
8 -16 20 -16 13 0 20 -7 20 -20 0 -13 7 -20 20 -20 12 0 20 -7 20 -16 0 -9 9
-18 20 -21 11 -3 20 -9 20 -14 0 -5 17 -19 38 -33 20 -13 48 -34 62 -48 14
-14 33 -27 43 -31 9 -3 17 -13 17 -22 0 -8 9 -15 20 -15 13 0 20 -7 20 -20 0
-13 7 -20 20 -20 11 0 20 -4 20 -9 0 -6 25 -27 56 -47 31 -20 58 -43 61 -51 3
-8 22 -13 54 -13 38 0 52 4 61 20 7 11 20 20 29 20 9 0 28 9 42 20 14 11 30
20 36 20 6 0 20 9 31 20 11 11 29 20 40 20 10 0 24 9 30 20 6 12 21 20 35 20
14 0 30 9 37 20 7 11 21 20 30 20 10 0 18 7 18 15 0 8 16 19 40 25 24 6 40 17
40 25 0 8 7 15 15 15 8 0 24 9 35 20 11 11 29 20 41 20 12 0 23 8 26 20 3 11
13 20 23 20 10 0 20 9 23 20 3 11 14 20 25 20 11 0 26 7 33 16 7 9 23 20 36
25 13 5 23 15 23 24 0 8 9 15 19 15 10 0 22 7 25 15 3 9 19 21 36 26 16 6 30
15 30 20 0 5 11 14 25 19 14 5 25 16 25 25 0 8 9 15 20 15 11 0 20 7 20 15 0
9 8 19 18 22 9 4 23 15 30 25 7 10 19 18 25 18 7 0 31 18 55 39 23 21 49 42
57 45 8 3 15 12 15 21 0 8 9 15 20 15 13 0 20 7 20 20 0 13 7 20 20 20 13 0
20 7 20 20 0 13 7 20 20 20 12 0 20 7 20 16 0 9 9 18 20 21 11 3 20 12 20 20
0 8 9 17 20 20 11 3 20 12 20 20 0 8 9 17 20 20 11 3 20 12 20 20 0 8 9 17 20
20 11 3 20 12 20 20 0 8 9 17 20 20 11 3 20 12 20 20 0 8 9 17 20 20 11 3 20
12 20 20 0 8 9 17 20 20 11 3 20 14 20 24 0 12 7 19 20 19 13 0 20 7 20 20 0
13 7 20 20 20 13 0 20 7 20 19 0 10 9 21 20 24 11 3 20 12 20 21 0 9 4 16 9
16 6 0 26 25 46 55 21 30 43 58 49 63 7 4 15 15 19 25 3 9 13 17 22 17 8 0 15
9 15 20 0 11 7 20 15 20 9 0 20 11 25 25 5 14 14 25 19 25 5 0 14 14 20 30 5
17 17 33 26 36 8 3 15 15 15 25 0 10 7 19 15 19 9 0 19 10 24 23 5 13 16 28
24 35 8 7 18 24 21 37 4 14 13 25 21 25 8 0 15 8 15 18 0 27 -150 63 -267 62
-64 0 -110 6 -155 20 -36 11 -91 20 -131 20 -40 0 -83 7 -105 16 -21 9 -85 20
-146 24 -65 4 -111 12 -116 19 -4 7 -45 16 -91 21 -46 4 -97 15 -114 24 -19
10 -55 16 -95 16 -43 1 -78 7 -105 20 -22 11 -61 19 -87 20 -29 0 -60 8 -80
20 -22 14 -51 20 -88 20 -36 0 -68 7 -93 20 -20 11 -56 20 -79 20 -27 0 -52 8
-68 20 -17 13 -41 20 -74 20 -31 0 -56 6 -67 16 -10 9 -48 20 -85 24 -37 5
-70 14 -74 21 -4 6 -32 14 -61 17 -30 3 -59 11 -65 20 -5 8 -32 16 -60 19 -27
3 -60 14 -73 24 -13 11 -40 19 -61 19 -22 0 -48 8 -63 20 -15 12 -40 20 -65
20 -24 0 -49 8 -65 20 -14 11 -38 20 -54 20 -15 0 -39 9 -53 20 -14 11 -40 20
-59 20 -19 0 -39 7 -46 16 -6 9 -32 18 -61 22 -27 3 -53 11 -59 18 -5 8 -32
18 -59 23 -27 5 -53 16 -58 25 -5 9 -22 16 -39 16 -17 0 -42 9 -56 20 -14 11
-39 20 -54 20 -17 0 -37 9 -46 20 -10 12 -30 20 -48 20 -16 1 -41 7 -55 15
-32 19 -49 19 -56 0z"/>
<path d="M10903 6654 c-13 -14 -23 -36 -23 -49 0 -14 -9 -33 -20 -42 -11 -10
-20 -30 -20 -45 0 -17 -7 -31 -20 -38 -13 -7 -20 -21 -20 -40 0 -17 -9 -39
-20 -50 -11 -11 -20 -30 -20 -42 0 -13 -9 -34 -20 -48 -11 -14 -20 -35 -20
-47 0 -13 -9 -32 -20 -43 -11 -11 -20 -32 -20 -48 0 -15 -9 -35 -20 -45 -11
-9 -20 -29 -20 -44 0 -16 -9 -39 -20 -53 -11 -14 -20 -39 -20 -57 0 -22 -6
-36 -20 -43 -13 -7 -20 -21 -20 -41 0 -17 -9 -42 -20 -56 -11 -14 -20 -40 -20
-57 0 -19 -8 -38 -20 -49 -13 -11 -20 -29 -20 -52 0 -22 -8 -43 -20 -55 -11
-11 -20 -33 -20 -51 0 -17 -9 -42 -20 -56 -11 -15 -20 -41 -20 -61 0 -20 -7
-40 -16 -46 -8 -7 -18 -32 -21 -56 -3 -25 -14 -56 -24 -69 -11 -13 -19 -39
-19 -58 0 -20 -9 -46 -20 -60 -12 -16 -20 -41 -20 -65 0 -25 -8 -50 -20 -65
-12 -15 -20 -41 -20 -63 0 -22 -8 -48 -20 -63 -13 -17 -20 -40 -20 -70 0 -29
-6 -52 -17 -62 -9 -9 -18 -39 -21 -68 -3 -29 -13 -64 -23 -79 -12 -16 -19 -43
-19 -74 0 -30 -6 -54 -16 -65 -9 -11 -19 -46 -23 -81 -4 -35 -13 -73 -21 -85
-12 -18 -11 -25 3 -47 10 -14 25 -26 35 -26 9 0 23 -9 30 -20 7 -12 23 -20 38
-20 17 0 28 -7 31 -20 3 -13 14 -20 29 -20 13 0 32 -9 41 -20 10 -11 28 -20
40 -20 13 0 31 -9 40 -20 10 -11 28 -20 40 -20 13 0 31 -9 40 -20 10 -11 25
-20 34 -20 9 0 28 -9 42 -20 14 -11 39 -20 56 -20 20 0 34 -7 41 -20 7 -13 21
-20 40 -20 17 0 39 -9 50 -20 11 -11 31 -20 44 -20 13 0 35 -9 49 -20 14 -11
39 -20 57 -20 18 0 43 -9 57 -20 14 -11 41 -20 59 -20 20 0 37 -6 42 -16 6
-11 28 -18 63 -22 30 -2 66 -13 81 -23 14 -11 41 -19 60 -19 18 0 47 -8 63
-17 17 -9 61 -19 99 -23 37 -4 71 -13 76 -19 4 -7 45 -16 93 -20 48 -5 93 -14
102 -21 9 -7 61 -16 125 -20 60 -4 116 -13 124 -19 7 -6 43 -14 80 -18 56 -5
66 -3 72 11 4 11 -2 29 -15 46 -13 18 -21 44 -21 68 0 24 -8 49 -20 65 -13 17
-20 40 -20 71 0 31 -5 48 -16 54 -10 6 -18 32 -24 76 -4 37 -15 75 -24 85 -10
11 -16 36 -16 65 0 33 -6 56 -20 73 -14 18 -20 41 -20 76 0 33 -6 57 -17 69
-10 12 -18 42 -21 80 -3 36 -13 75 -23 92 -12 20 -19 50 -19 84 0 33 -7 67
-20 92 -13 26 -20 59 -20 97 0 40 -6 68 -20 91 -15 24 -20 50 -20 98 0 43 -6
77 -19 102 -12 25 -20 66 -23 125 -3 59 -9 91 -18 97 -9 5 -15 44 -20 117 -4
64 -13 124 -23 147 -12 26 -17 66 -17 125 0 56 -7 110 -20 156 -14 50 -20 100
-20 175 0 64 -6 129 -16 165 -8 33 -18 99 -21 146 l-6 87 -37 6 c-21 3 -40 13
-44 21 -3 9 -18 15 -39 15 -19 0 -46 9 -60 20 -14 11 -34 20 -45 20 -31 0 -52
11 -52 26 0 8 -10 14 -24 14 -35 0 -56 10 -56 26 0 9 -11 14 -30 14 -19 0 -34
7 -42 20 -7 11 -20 20 -29 20 -9 0 -24 9 -34 20 -24 26 -55 24 -82 -6z"/>
<path d="M12473 6359 c-72 -4 -137 -10 -143 -14 -39 -24 -297 -23 -377 1 -18
5 -24 1 -31 -17 -13 -39 2 -344 18 -364 9 -11 16 -59 21 -143 4 -75 13 -145
23 -171 9 -25 16 -74 16 -117 0 -50 6 -90 20 -124 13 -32 20 -74 20 -116 0
-45 6 -77 20 -104 14 -27 20 -59 20 -105 0 -43 6 -77 17 -98 9 -18 20 -65 23
-105 4 -43 12 -77 20 -82 7 -5 15 -37 18 -81 3 -49 11 -83 23 -101 13 -17 19
-44 19 -80 0 -37 6 -60 20 -78 14 -18 20 -41 20 -79 0 -37 5 -60 17 -73 9 -11
20 -45 24 -80 4 -33 13 -64 19 -68 7 -4 15 -32 18 -61 2 -30 12 -65 22 -79 10
-14 20 -49 22 -79 4 -35 11 -57 22 -63 11 -6 16 -23 16 -52 0 -29 7 -51 20
-66 13 -15 20 -37 20 -66 0 -24 6 -47 13 -51 7 -4 18 -21 25 -37 12 -28 15
-28 65 -22 29 3 167 8 307 12 205 5 269 10 326 25 44 12 103 19 158 19 62 0
96 5 119 17 19 10 71 19 126 24 56 4 97 12 101 19 5 7 39 15 81 18 49 3 83 11
101 23 17 13 44 19 79 19 35 0 59 6 71 17 10 9 45 20 78 24 33 4 66 14 75 23
10 9 33 16 57 16 25 0 49 8 65 20 16 12 41 20 64 20 24 0 41 6 47 15 4 9 31
19 59 24 28 4 59 15 68 24 9 10 32 17 51 17 21 0 42 8 54 20 11 11 32 20 48
20 15 0 35 9 45 20 10 12 29 20 47 20 25 0 30 4 30 24 0 27 -20 51 -50 61 -11
3 -20 11 -20 16 0 5 -11 14 -25 19 -14 5 -25 16 -25 24 0 7 -9 16 -20 19 -11
3 -20 12 -20 21 0 9 -8 16 -20 16 -11 0 -20 7 -20 15 0 9 -7 18 -16 22 -9 3
-31 20 -48 37 -17 17 -47 43 -67 58 -20 15 -55 45 -77 66 -23 22 -48 42 -57
45 -8 4 -15 13 -15 21 0 7 -9 16 -20 19 -11 3 -20 12 -20 21 0 9 -8 16 -20 16
-13 0 -20 7 -20 20 0 13 -7 20 -20 20 -13 0 -20 7 -20 20 0 13 -7 20 -19 20
-10 0 -21 9 -24 20 -3 11 -12 20 -20 20 -8 0 -17 9 -20 20 -3 11 -12 20 -20
20 -8 0 -17 9 -20 20 -3 11 -12 20 -20 20 -8 0 -17 9 -20 20 -3 11 -12 20 -20
20 -8 0 -17 9 -20 20 -3 11 -12 20 -20 20 -9 0 -19 9 -22 20 -3 11 -12 20 -20
20 -7 0 -15 9 -18 20 -3 11 -12 20 -20 20 -8 0 -17 9 -20 20 -3 11 -12 20 -20
20 -8 0 -17 9 -20 20 -3 11 -12 20 -20 20 -8 0 -17 9 -20 20 -3 11 -12 20 -20
20 -8 0 -17 9 -20 20 -3 11 -12 20 -21 20 -9 0 -16 8 -16 20 0 13 -7 20 -20
20 -13 0 -20 7 -20 20 0 13 -7 20 -20 20 -13 0 -20 7 -20 19 0 10 -9 21 -20
24 -11 3 -20 12 -20 21 0 9 -7 16 -15 16 -9 0 -18 7 -22 15 -3 9 -23 34 -45
57 -21 22 -51 57 -66 77 -15 19 -35 43 -44 53 -10 10 -18 23 -18 28 0 6 -6 10
-14 10 -7 0 -16 9 -19 20 -3 11 -12 20 -21 20 -9 0 -16 8 -16 20 0 11 -7 20
-15 20 -9 0 -18 7 -21 15 -3 8 -24 34 -45 57 -22 24 -42 51 -45 61 -3 9 -10
17 -15 17 -5 0 -14 11 -19 25 -5 14 -16 25 -25 25 -8 0 -15 8 -15 19 0 10 -9
21 -20 24 -11 3 -20 12 -20 21 0 9 -4 16 -9 16 -8 0 -38 41 -69 97 -7 13 -20
23 -28 23 -7 0 -14 9 -14 20 0 11 -7 20 -15 20 -9 0 -20 11 -25 25 -5 14 -14
25 -19 25 -5 0 -14 14 -20 30 -5 17 -17 33 -26 36 -8 3 -15 15 -15 25 0 10 -7
19 -15 19 -9 0 -20 11 -25 25 -5 14 -14 25 -19 25 -5 0 -14 14 -20 30 -5 17
-17 33 -26 36 -8 3 -15 15 -15 25 0 10 -7 19 -15 19 -9 0 -19 8 -22 18 -9 23
-23 32 -53 30 -14 0 -84 -4 -157 -9z"/>
</g></g>

  <text x="190" y="210" fill="#666666" font-family="Geist Mono, monospace" font-size="24" font-weight="500" letter-spacing="0.5">rednafi.com</text>
  <text x="186" y="298.5" fill="#171717" font-family="Geist, sans-serif" font-size="82" font-weight="680" letter-spacing="-1">Redowan's</text>
  <text x="186" y="384" fill="#171717" font-family="Geist, sans-serif" font-size="82" font-weight="680" letter-spacing="-1">Reflections</text>
</svg>
